<?xml version="1.0" encoding="UTF-8"?>
<svg id="Layer_2" data-name="Layer 2" xmlns="http://www.w3.org/2000/svg" viewBox="0 0 617.92 926.03">
  <defs>
    <style>
      .cls-1 {
        fill: #433e3f;
      }

      .cls-2 {
        fill: #fdecef;
      }
    </style>
  </defs>
  <g id="Layer_1-2" data-name="Layer 1">
    <g>
      <path class="cls-1" d="M574.89,35.3c52.92,49.79,50.43,177.31,27.71,240.4-18.3,50.82-47.01,95.22-55.71,151.37-19.99,129.02-17.99,339.75-112.28,438.98-25.62,26.97-52.6,44.36-88.54,54.54-46.48,13.17-67.4,4.22-58.4-46.29,14.72-82.59,42.26-151.91,48.02-241.32,1.13-17.51-2.44-82.17-29.07-79.98-17.2,1.41-86.75,129.48-100.61,151.2-40.32,63.18-92.79,143.21-147.19,193.82-55.89,51.99-62.23,8.33-57.6-45.49,13.02-151.38,63.98-299.12,57.61-454.36-1.22-29.7-6.57-56.14-6.34-88.34.37-52.69-14.12-66.79-25.76-114.09-8.55-34.73-18.28-100.11,3.27-130.82,10.13-14.44,34.47-11.55,46.88-17.03,6.32-2.79,16.86-19.16,24.55-24.15,20.72-13.44,29.72-2.34,49.99-1.53,15.24.62,53.37,1.48,66.74-.4,32.35-4.56,46.1-26.07,87.78-20.34,9.92,1.36,32.59,11.92,40.03,11.46,14.95-.92,25.16-16.84,51.8-11.99,17.43,3.17,38.25,25.71,45.87,27.16,12.96,2.48,48.97.93,63.78.02,25.89-1.6,42.81-15.99,67.45,7.2ZM362.95,55.6c-30.71-10.88-62.02-24.57-95.56-21.09l-121.47,42.87c-8.54,5.34-2.13,22.03-14.18,29.94l15.21-2.99-12.17,15.17,12.15,1.54-18.23,18.31,9.09,6.04-19.77,16.78,1.52-12.16-9.15,1.57c.49-9.36-5.92-7.9-7.52-10.57-3.1-5.19-1.55-19.22-1.85-25.71-.67-14.3-8.84-17.76-8.87-18.87-.22-8.34,11.05-21.41-10.63-19.82-27,1.99-10.39,18.07-12.02,21.65-3.18,6.99-21.23,15.8-22.99,25.82l18.26-6.08-18.23,22.84c6.83,4.35,22.1-17.58,24.31-15.2l-21.24,30.46,15.17-9.12-9.1,13.71,9.08-1.54c3.8,13.29-6.74,16.98-9.07,27.41l15.18-6.06c-21.89,31.18,7.23,50.5,6.1,82.23,8.84,1.54,12.81-5.11,18.23-10.69l-6.87-1.46c-8.25-4.47,1.51-6.14,3.54-8.45,5.2-5.93,11.46-10.58,15.55-17.55l-6.1-6c8.39-5.15,8.4-13.53,12.21-20.69.92-1.73,4.59-2.01,5.76-4.62,5.91-13.23,3.86-28.07,13.97-37.16l-1.37,24.22,8.97.16-6.12,9.08,9.17.04-6.1,7.59,9.09,7.59c-12.92,4.32-24.87,16.87-33.44,27.43l36.48-21.29c1.39,5.99-3.09,7.22-6.34,10.38-8.61,8.35-62,47.39-60.55,55.07.91,4.86,3.68,4.14,7.59,1.58,19.94-13.03,39.67-44.93,65.4-48.72l-57.8,53.28-6.06,10.65c4.88,4.89,45.5-46.46,57.79-42.6l-45.61,47.23c-1.38,7.62,3.9,3.31,6.67,1.21,10.88-8.24,19.66-27.02,35.89-27.11-4.73,5.74-10.95,10.41-14.61,17.29-8.29,15.59-8.52,33.26,10.89,39.73,22.94,7.65,112.46-5.17,135.31-15.19,5.56-2.44,9.36-7.78,16.62-10.78,32.87-13.59,57.52-13.13,90.81-.78,40.22,14.92,49.9,32.47,103.22,33.83,28.42.73,28.62-23.23,35.09-45.86l9.06,12.17,6.16-21.3c9.76-2.77,2.59,7.78,10.58,6.11,3.24-.68,1.01-5.18,1.61-7.64-15.96-8.72-29.15-16.91-48.75-13.72v-9.11c3.54-3.67,58.11,7,51.77,24.35,23.01-15.15-7.29-23.38-22-28.27-9.55-3.17-19.58-5.6-29.76-5.26-.77-6.08-.6-5.08,3.89-6.92,12.52-5.13,31.55,9.72,44.78,9.96,8.16-7.24-33.34-23.54-39.54-18.29,6.08-12.17,20.6-3.14,30.41-3.03l-12.15-12.14,15.2-.05-11.62-13.69,5.55-10.64-15.23-3.1c7.63-19.05,1.22-50.27,6.12-67.99,1.02-3.71,6.31-.7,6.11-3.56-11.02-2.25-.98-13.53-9.21-21.26,17.8-5.87.32-16.99,7.6-29.06,3.97-6.58,19.56-3.33,16.75-10.56-1.16-2.99-6.72-7.22-10.43-7.44-8.56-.5-40.47,9.51-52.22,11.66-15.58,2.84-51.87,11.66-64.06,12.29-8.82.46-20.9-8.01-25.39,3.22l15.21,9.14h-15.18s14.84,6.34,14.84,6.34l-5.58,19.67c-3.34,1.87-17.69-6.4-18.4,1.41l15.18,12.2-21.27-4.57c4.79,7.06,24.53,9.16,24.4,18.3-.02,1.79-4.04,1.3-4.92,2.76-4.52,7.54-5.49,13.68-17.94,14.03l-10.25-16.79,5.65-7.57c-12.56-2.97-15.98-9.61-12.16-21.34l-15.23-3.14,2.4-10.79-8.48-4.45,18.24-9.04-27.31-13.75c3.97-.86,9.89-10.29,11.22-10.59,4.44-1.02,13.46,2.7,13.05-3.08ZM283.88,323.65c20.23,9.43,16.4-13.17,6.6-8.5-.37.18-.13,4-2.91,5.15-5.47,2.25-13.05,2.15-18.25,7.03l-.7,17.62-3.03-15.21-33.09,6.51-.39,8.69-3.08-9.1c-3.51-3.54-43.37,14.2-51.64,16.75-10.88,3.34-23.36,2.61-31.39,5.13-6.6,2.07-11.43,17.51-20.28,17.77l1.44,6.01c6-2.67,15.74-19.02,22.81-9.15-5.08,1.59-13.66,9.54-17.16,13.29-2.77,2.96-21.47,24.02-19.29,26.35,9.68-6.81,18.23-15.34,27.34-22.86,2.41-1.99,6.05-8.03,9.13-3.05-.02,2.77-31.93,34.81-22.82,31.99,2.08-2.02,24.81-19.41,19.77-7.64-2.08,4.85-28.71,24-24.28,28.98,8.43-4.7,15.77-18.87,27.34-13.72-10.75,12.29-58.86,56.51-57.83,70.05l6.06,1.53c9.59-19.1,26.39-35.22,42.62-48.72l-45.58,67.02c17.39-11.5,26.86-31.05,42.54-44.2,2.41-2.02,6.1-7.99,9.14-3.04-14.81,22.13-39.96,43-53.35,65.39-2.42,4.04-5.98,6.22-4.41,12.31,12.73-8.32,42.1-55.1,53.27-57.82,1.69-.41,4.96-.9,4.49,1.45l-15.17,22.86,15.18-9.11c-11.71,10.09.25,13.79-.42,19.24-.45,3.64-8.56,9.86-10.15,14.43-1.43,4.11,1.19,8.38-.06,11.98-2.55,7.35-8.83,16.88-10.63,22.93-2.81,9.46,13.28-3.7,9.05,5.98-.98,2.24-5.27,4.82-6.71,8.53-8.77,22.67-14.72,46.98-22.58,68.51-12.16,33.33-37.67,62.03-46.98,96.42l6.34,3.2c-9.03,17.21-9.67,33.02-17.68,52.49-.96,2.33-1.66,10.42,2.47,5.37l2.76-.24c-4.46,21.33-17.29,39.98-14.94,62.76l19.9-18.11c4.69-16.36,20.51-20.2,13.57-36.69,6.06-3.23,13.2,9.15,16.74,3.05,6.87-11.88-7.19-5.87-4.56-15.23l15.18,6.06-9.08-22.87,9.15-1.5-1.62-9.14c7.79-6.98,10.6,18.18,18.39,6.2,5.94-9.14-6.07-23.67-7.69-33.58,9.38-2.76,9.06,18.96,12.21,21.29,19.61-12.11-2.92-30.27-6.11-45.67,5.29-5.41,19.23,18.91,18.28,24.35,21.56-5.3,1.42-34.88-12.15-41.12,12.24-12.43,26.29,7.5,27.37,19.79,29.19-6.32-18.55-50.01-18.22-53.32.74-7.41,9.3-1.41,11.86.25,12.48,8.13,14.31,24.76,27.62,28.68l-21.26-41.15c.15-11.96,11.95,2.39,14.69,6.63,4.9,7.59,8.29,31.76,18.39,17.32,2.59-8.27-3.78-20.35-8.18-27.54-5.9-9.64-16.61-14.42-18.83-25.29l12.29,4.42,24.19,32.1c.36-20.37-8.06-43.43-24.31-56.36,4.88-6.82,17.62,5.39,18.21,4.58l-6.04-27.4c6.83-7.56,23.83,33.11,25.88,36.62,1.01,1.73,2.94,11.81,7.55,6,2.51-3.16-20.17-58.91-30.35-62.44,10.22-12.13,16.96,6.34,24.25,10.65,1.58-16.33-10.11-28.41-15.17-42.62,13.43-2,16.21,11.81,20.49,20.71,2,4.15-1.92,8.38,6.86,6.67-.13-14.63-4.39-29-11.42-41.91-2.34-4.3-16.46-11.25-9.85-18.98,6.6-7.72,25.41,31.62,30.39,27.38,11.12-9.46-18.3-36.83-15.18-39.57,12.39-5.69,18.07,11.97,19.88,12.31,19.75,3.72,7.06-33.96-11.96-21.26l-3.44-6.48-13.59,6.27c.09-1.44-.52-3.19,0-4.53,4.05-10.39,45.72-33.91,53.12-47.36,10.98-4.38,21.81-5.47,28.55-16.66l-5.63-7.57,18.23-9.15c-6.17.05-11.75-4.43-18.1-1.67-3.25,1.41-30.75,34.46-38.09,41.32-6.73,6.29-39.63,34.35-45.45,33.56l-10.9-10.75c12.11-4.68,32.69-31.29,41.09-35.05,1.62-.72,5.14-.59,4.5,1.48l-12.14,15.27c-.48,2.26,3.18,2.08,4.51,1.48,2.23-1,28.65-25.08,32.06-28.84,19.94-22.04,19.9-36.03,18.21-65.55,4.81-1,4.09,8.88,7.55,9.09,4.19.25,10.7-5.5,6.62-11.46-.64-.93-4.68-.33-4.97-.81-1-1.59,5.49-5.28,5.76-10.33.26-4.73-4.4-11.2-2.8-16.96ZM329.48,329.73l-2.95-10.62c-37.21-7.56-29.45,8.29,2.95,10.62ZM320.39,335.84c-4.43,3.05-32.71-7.31-30.43,4.51l30.39,4.6.03-9.11ZM411.01,348.63c-.59-1-16.88-10.65-19.8-12.17-3.71-1.93-5.07-5.59-8.53-.64-1.06,19.73,8.69,44.59-6.02,60.89l-7.57-6.04-3.1,33.49-15.18-3.04v12.22s-15.22-.01-15.22-.01l6.11,51.76,12.11-24.34c1.54,13.37-11.05,27.76,9.2,27.43l-3.05,10.43,15.16,6.32c-5.3,4.1-20.55-.3-18.22,10.63l30.39.05c-2.94,7.35-19.01-1.74-21.28,9.08,7.77-.18,17.89.93,21.3,9.14l-39.55,3.11c4.4,11.31,37.59,3.51,42.62,9.12l-.02,15.19c-7.93,1.24-29.38-3.65-33.45,4.64-1.59,5.52,4.6,6.03,8.34,6.74,9.32,1.79,18.77.52,28.13.86.6,4.4-8.26,4.64-11.48,5.2-6.33,1.09-12.56,1.16-18.92.88-2.19,12.03,20.43,3.75,27.37,6.11-3.75,10.79-11.95,7.65-19.62,9.27-12.42,2.62-9.7,10.78,2.74,12.17,5.2.58,18.4-3.32,19.91,2.87l-15.19,3.12,9.1,15.18-6.1,1.54,3.95,1.55,2.15,7.56c-2.87,6.41-14.21,3.75-15.09,4.68-1.43,1.51,1.61,10.48-.71,14.57-1.09,1.91-8.5,1.69-10.91,8.84-6.68,19.84-6.44,60.74-10.6,83.82-8.89,49.26-29.81,95.86-35.67,145.52,4.55,4.59,59.77-16.01,62.55-21.32,5.16-9.87-13.12-24.06-5.2-35.19l-5.51-5.75c5.01-9.39,15.42-16.67,20.67-25.05,3.52-5.61,37.48-80.75,40.02-77.18l.05,12.17c6.19,7.02,11.32-15.98,11.31-20.5-.01-3.92-4.41-6.22-3.85-10.08,2.06-14.18,17.44-40.25,19.41-56.87l-4.08-6.96-4.51,6.06c-7.42-13.67,3.74-18.91,7.13-31.16,1.98-7.16,7.09-35.48,6.09-41.49-1-6.05-7.09-13.89-6.68-16.66.53-3.51,12.06-18.5,13.24-26.32.54-3.59-5.44-9.28-1.54-15.28l-9.14-1.56,15.23-18.26-15.21,7.59,9.13-19.77-9.13,4.54c-1.28-1.8,8.64-37.22,10.66-42.61,4.28-11.41,13.7-19.08,16.68-30.49-6.58-6.78-25.06,31.99-24.28,37.53l-9.16,2.05c-2.87-2.86,7.04-24.12,9.56-28.48,4.44-7.71,26.37-22.58,5.69-26.32l-24.36,42.63c-4.79-14.92,19.03-35.76,20.49-44.66,1.94-11.74-24.37-28.56-5.34-40.64l3.04,12.17,6.12-15.18-19.89-.17c-4.75,7.25,3.06,23.86-4.41,27.54-.42-12.18-7.99-5.61-12.21-7.54-28.05-12.8-8.57-22.07-15.85-34.48ZM302.14,369.35c-12.18,2.37-29.14-10.67-27.39,9.11,12.95,3.35,17.95-10.41,27.34.02l.05-9.13ZM286.89,430.29c-22.29,6.98-41.24,20.44-54.75,39.56,16.63-6.93,33.02-19.17,47.68-29.92,3.74-2.74,8.5-3.12,7.07-9.64Z"/>
      <path class="cls-2" d="M362.95,55.6c.41,5.78-8.61,2.06-13.05,3.08-1.33.3-7.25,9.73-11.22,10.59l27.31,13.75-18.24,9.04,8.48,4.45-2.4,10.79,15.23,3.14c-3.82,11.73-.4,18.38,12.16,21.34l-5.65,7.57,10.25,16.79c12.45-.36,13.42-6.5,17.94-14.03.87-1.46,4.89-.97,4.92-2.76.13-9.13-19.61-11.23-24.4-18.3l21.27,4.57-15.18-12.2c.72-7.81,15.06.46,18.4-1.41l5.58-19.67-14.84-6.35h15.18s-15.21-9.13-15.21-9.13c4.49-11.23,16.56-2.76,25.39-3.22,12.19-.63,48.48-9.45,64.06-12.29,11.75-2.14,43.65-12.16,52.22-11.66,3.72.22,9.27,4.44,10.43,7.44,2.81,7.23-12.78,3.98-16.75,10.56-7.28,12.07,10.2,23.19-7.6,29.06,8.23,7.73-1.81,19.01,9.21,21.26.2,2.86-5.09-.14-6.11,3.56-4.9,17.73,1.51,48.94-6.12,67.99l15.23,3.1-5.55,10.64,11.62,13.69-15.2.05,12.15,12.14c-9.81-.11-24.32-9.14-30.41,3.03,6.2-5.24,47.7,11.05,39.54,18.29-13.24-.25-32.26-15.1-44.78-9.96-4.49,1.84-4.65.84-3.89,6.92,10.18-.35,20.21,2.08,29.76,5.26,14.72,4.89,45.02,13.12,22,28.27,6.34-17.35-48.23-28.02-51.77-24.35v9.11c19.59-3.2,32.79,5,48.75,13.72-.59,2.46,1.64,6.96-1.61,7.64-7.99,1.67-.82-8.88-10.58-6.11l-6.16,21.3-9.06-12.17c-6.47,22.63-6.67,46.59-35.09,45.86-53.32-1.36-63-18.91-103.22-33.83-33.3-12.35-57.94-12.81-90.81.78-7.26,3-11.05,8.34-16.62,10.78-22.85,10.02-112.36,22.84-135.31,15.19-19.41-6.47-19.18-24.14-10.89-39.73,3.66-6.88,9.88-11.55,14.61-17.29-16.22.09-25.01,18.87-35.89,27.11-2.77,2.1-8.05,6.41-6.67-1.21l45.61-47.23c-12.29-3.85-52.91,47.49-57.79,42.6l6.06-10.65,57.8-53.28c-25.73,3.79-45.46,35.7-65.4,48.72-3.91,2.55-6.68,3.28-7.59-1.58-1.44-7.68,51.94-46.72,60.55-55.07,3.25-3.16,7.73-4.39,6.34-10.38l-36.48,21.29c8.57-10.56,20.52-23.11,33.44-27.43l-9.09-7.59,6.1-7.59-9.17-.04,6.12-9.08-8.97-.16,1.37-24.22c-10.11,9.08-8.06,23.92-13.97,37.16-1.17,2.62-4.84,2.9-5.76,4.62-3.82,7.17-3.83,15.54-12.21,20.69l6.1,6c-4.09,6.96-10.35,11.61-15.55,17.55-2.02,2.31-11.78,3.99-3.54,8.45l6.87,1.46c-5.42,5.58-9.39,12.23-18.23,10.69,1.13-31.74-27.99-51.06-6.1-82.23l-15.18,6.06c2.33-10.43,12.87-14.12,9.07-27.41l-9.08,1.54,9.1-13.71-15.17,9.12,21.24-30.46c-2.21-2.38-17.48,19.55-24.31,15.2l18.23-22.84-18.26,6.08c1.76-10.02,19.81-18.83,22.99-25.82,1.63-3.58-14.99-19.66,12.02-21.65,21.68-1.59,10.42,11.48,10.63,19.82.03,1.11,8.2,4.57,8.87,18.87.3,6.48-1.25,20.52,1.85,25.71,1.6,2.67,8.01,1.21,7.52,10.57l9.15-1.57-1.52,12.16,19.77-16.78-9.09-6.04,18.23-18.31-12.15-1.54,12.17-15.17-15.21,2.99c12.05-7.91,5.64-24.61,14.18-29.94l121.47-42.87c33.54-3.48,64.85,10.2,95.56,21.09ZM502.91,296.24c-8.03-.71-5.01-.34-5.95,4.56-8.96,46.41,16.97,29.91,13.59-1.52l-7.59,12.16-.05-15.2Z"/>
      <path class="cls-2" d="M283.88,323.65c-1.6,5.76,3.06,12.23,2.8,16.96-.27,5.05-6.76,8.74-5.76,10.33.3.47,4.33-.13,4.97.81,4.08,5.96-2.43,11.71-6.62,11.46-3.46-.21-2.75-10.09-7.55-9.09,1.69,29.52,1.73,43.52-18.21,65.55-3.4,3.76-29.83,27.84-32.06,28.84-1.33.59-4.99.78-4.51-1.48l12.14-15.27c.64-2.07-2.88-2.2-4.5-1.48-8.41,3.76-28.98,30.36-41.09,35.05l10.9,10.75c5.82.79,38.72-27.27,45.45-33.56,7.34-6.86,34.83-39.91,38.09-41.32,6.35-2.76,11.94,1.72,18.1,1.67l-18.23,9.15,5.63,7.57c-6.75,11.19-17.58,12.28-28.55,16.66-7.4,13.45-49.07,36.97-53.12,47.36-.52,1.33.09,3.08,0,4.53l13.59-6.27,3.44,6.48c19.02-12.7,31.71,24.98,11.96,21.26-1.81-.34-7.49-18.01-19.88-12.31-3.13,2.74,26.29,30.1,15.18,39.57-4.98,4.24-23.79-35.11-30.39-27.38-6.61,7.74,7.51,14.68,9.85,18.98,7.02,12.91,11.29,27.28,11.42,41.91-8.78,1.7-4.86-2.52-6.86-6.67-4.28-8.9-7.06-22.71-20.49-20.71,5.06,14.21,16.74,26.28,15.17,42.62-7.29-4.31-14.03-22.78-24.25-10.65,10.18,3.52,32.86,59.27,30.35,62.44-4.61,5.81-6.54-4.27-7.55-6-2.06-3.51-19.06-44.18-25.88-36.62l6.04,27.4c-.59.8-13.33-11.4-18.21-4.58,16.25,12.93,24.67,35.99,24.31,56.36l-24.19-32.1-12.29-4.42c2.22,10.87,12.93,15.65,18.83,25.29,4.4,7.19,10.77,19.27,8.18,27.54-10.09,14.44-13.49-9.73-18.39-17.32-2.74-4.24-14.54-18.6-14.69-6.63l21.26,41.15c-13.3-3.91-15.13-20.54-27.62-28.68-2.56-1.66-11.12-7.66-11.86-.25-.33,3.31,47.41,47,18.22,53.32-1.08-12.29-15.12-32.22-27.37-19.79,13.58,6.23,33.72,35.81,12.15,41.12.95-5.44-12.99-29.75-18.28-24.35,3.19,15.4,25.72,33.56,6.11,45.67-3.14-2.33-2.82-24.05-12.21-21.29,1.62,9.9,13.63,24.44,7.69,33.58-7.79,11.99-10.61-13.18-18.39-6.2l1.62,9.14-9.15,1.5,9.08,22.87-15.18-6.06c-2.63,9.36,11.44,3.35,4.56,15.23-3.53,6.11-10.67-6.27-16.74-3.05,6.94,16.49-8.88,20.33-13.57,36.69l-19.9,18.11c-2.35-22.78,10.48-41.43,14.94-62.76l-2.76.24c-4.13,5.05-3.42-3.05-2.47-5.37,8.01-19.47,8.65-35.28,17.68-52.49l-6.34-3.2c9.3-34.4,34.81-63.09,46.98-96.42,7.86-21.53,13.81-45.84,22.58-68.51,1.44-3.71,5.73-6.29,6.71-8.53,4.22-9.69-11.86,3.48-9.05-5.98,1.8-6.05,8.08-15.58,10.63-22.93,1.25-3.59-1.37-7.87.06-11.98,1.59-4.57,9.7-10.79,10.15-14.43.67-5.45-11.29-9.15.42-19.24l-15.18,9.11,15.17-22.86c.46-2.35-2.81-1.86-4.49-1.45-11.17,2.72-40.54,49.5-53.27,57.82-1.57-6.09,1.99-8.27,4.41-12.31,13.39-22.38,38.54-43.26,53.35-65.39-3.04-4.95-6.73,1.02-9.14,3.04-15.68,13.14-25.15,32.69-42.54,44.2l45.58-67.02c-16.23,13.49-33.03,29.62-42.62,48.72l-6.06-1.53c-1.03-13.54,47.08-57.76,57.83-70.05-11.57-5.15-18.91,9.03-27.34,13.72-4.42-4.99,22.21-24.13,24.28-28.98,5.04-11.78-17.69,5.62-19.77,7.64-9.11,2.83,22.8-29.22,22.82-31.99-3.08-4.98-6.72,1.06-9.13,3.05-9.11,7.53-17.65,16.05-27.34,22.86-2.18-2.32,16.52-23.39,19.29-26.35,3.51-3.74,12.09-11.7,17.16-13.29-7.07-9.87-16.81,6.48-22.81,9.15l-1.44-6.01c8.85-.26,13.69-15.7,20.28-17.77,8.03-2.52,20.51-1.78,31.39-5.13,8.27-2.54,48.14-20.29,51.64-16.75l3.08,9.1.39-8.69,33.09-6.51,3.03,15.21.7-17.62c5.21-4.88,12.78-4.78,18.25-7.03,2.79-1.15,2.54-4.97,2.91-5.15,9.8-4.66,13.63,17.93-6.6,8.5ZM262.55,381.54c-4.42-5.53-6.73,4.26-7.83,5.75-7.96,10.82-15.58,22.35-22.58,33.81,8.14,6.75,34-35.08,30.41-39.56ZM177.34,387.62c-5.39,3.94-9.45-3.11-13.53-3.2-.71-.02-3.46,8.43-10.77,7.76l7.4,10.35c8.91-3.67,19.45-2.01,16.9-14.9ZM247.35,384.6c-10.7-4.43-14.49,11.99-17.13,12.42-10.23,1.64-42.05-26.3-43.69,5.83,14.67-8.72,27.01-2.43,38,9.09l22.82-27.34ZM204.69,442.4l-1.44-6.01-19.78,12.19-3.02-9.14c-1.35,8.62-11.75,12.39-9.15,22.79,1.24,4.95,3.73,4.13,7.6,1.58,7.82-5.16,15.55-18.37,25.79-21.4Z"/>
      <path class="cls-2" d="M411.01,348.63c7.28,12.41-12.2,21.69,15.85,34.48,4.22,1.93,11.79-4.64,12.21,7.54,7.47-3.68-.34-20.29,4.41-27.54l19.89.17-6.12,15.18-3.04-12.17c-19.03,12.08,7.28,28.9,5.34,40.64-1.47,8.9-25.28,29.74-20.49,44.66l24.36-42.63c20.67,3.74-1.25,18.62-5.69,26.32-2.51,4.36-12.43,25.62-9.56,28.48l9.16-2.05c-.78-5.54,17.7-44.31,24.28-37.53-2.97,11.42-12.4,19.08-16.68,30.49-2.02,5.38-11.94,40.81-10.66,42.61l9.13-4.54-9.13,19.77,15.21-7.59-15.23,18.26,9.14,1.56c-3.89,6,2.08,11.69,1.54,15.28-1.17,7.82-12.71,22.82-13.24,26.32-.42,2.77,5.67,10.61,6.68,16.66,1,6.02-4.11,34.34-6.09,41.49-3.39,12.26-14.55,17.49-7.13,31.16l4.51-6.06,4.08,6.96c-1.97,16.62-17.35,42.69-19.41,56.87-.56,3.86,3.84,6.16,3.85,10.08.02,4.52-5.12,27.52-11.31,20.5l-.05-12.17c-2.55-3.57-36.5,71.57-40.02,77.18-5.25,8.37-15.66,15.66-20.67,25.05l5.51,5.75c-7.93,11.13,10.35,25.33,5.2,35.19-2.78,5.31-58.01,25.91-62.55,21.32,5.87-49.66,26.78-96.26,35.67-145.52,4.16-23.08,3.92-63.97,10.6-83.82,2.41-7.15,9.82-6.93,10.91-8.84,2.32-4.09-.72-13.06.71-14.57.88-.93,12.22,1.73,15.09-4.68l-2.15-7.56-3.95-1.55,6.1-1.54-9.1-15.18,15.19-3.12c-1.5-6.19-14.7-2.29-19.91-2.87-12.44-1.39-15.16-9.56-2.74-12.17,7.67-1.61,15.87,1.52,19.62-9.27-6.95-2.36-29.56,5.92-27.37-6.11,6.36.28,12.59.21,18.92-.88,3.22-.55,12.08-.79,11.48-5.2-9.36-.34-18.81.93-28.13-.86-3.74-.72-9.92-1.22-8.34-6.74,4.07-8.29,25.52-3.4,33.45-4.64l.02-15.19c-5.03-5.61-38.23,2.19-42.62-9.12l39.55-3.11c-3.4-8.21-13.53-9.32-21.3-9.14,2.27-10.82,18.34-1.73,21.28-9.08l-30.39-.05c-2.32-10.93,12.92-6.53,18.22-10.63l-15.16-6.32,3.05-10.43c-20.26.33-7.67-14.06-9.2-27.43l-12.11,24.34-6.11-51.76h15.22s0-12.21,0-12.21l15.18,3.04,3.1-33.49,7.57,6.04c14.71-16.3,4.96-41.16,6.02-60.89,3.47-4.95,4.82-1.29,8.53.64,2.92,1.52,19.21,11.16,19.8,12.17ZM391.92,354.12c-6.09,1.23-7.28,20.84-.1,24.2,23.47-1.93,9.53-26.1.1-24.2ZM448.14,405.91c-5.26-5.36-25.99,25.76-21.27,33.48,8.07,1.66,5.24-2.01,7.56-5.99,2.02-3.48,14.79-26.39,13.71-27.49ZM426.89,701.4c5.57-2.84,14.49-24.13,15.22-29.25,1.39-9.74-9.49-17.48-6.16-28.62-8.38,4.6.9,20.28,0,27.39-3.45,2.57-3.11-12.39-7.59-3.05-5.24,10.92-4.31,22.18-1.47,33.53ZM390.38,780.6c19.13-18.23,18.92-48.38,15.15-73.11-5.88.94-4.81,6.61-6.36,10.36-3.74,9.07-13.5,34.62-14.94,42.94-.31,1.76-.79,5.02,1.54,4.57l13.68-18.25-9.07,33.5Z"/>
      <path class="cls-2" d="M286.89,430.29c1.42,6.52-3.33,6.9-7.07,9.64-14.65,10.74-31.04,22.98-47.68,29.92,13.51-19.12,32.46-32.57,54.75-39.56Z"/>
      <path class="cls-2" d="M320.39,335.84l-.03,9.11-30.39-4.6c-2.28-11.82,26-1.46,30.43-4.51Z"/>
      <path class="cls-2" d="M329.48,329.73c-32.41-2.33-40.16-18.18-2.95-10.62l2.95,10.62Z"/>
      <path class="cls-2" d="M302.14,369.35l-.05,9.13c-9.39-10.43-14.38,3.33-27.34-.02-1.75-19.79,15.21-6.75,27.39-9.11Z"/>
      <path class="cls-1" d="M502.91,296.24l.05,15.2,7.59-12.16c3.38,31.42-22.55,47.93-13.59,1.52.95-4.9-2.08-5.28,5.95-4.56Z"/>
      <path class="cls-1" d="M247.35,384.6l-22.82,27.34c-10.99-11.52-23.33-17.81-38-9.09,1.64-32.13,33.46-4.2,43.69-5.83,2.65-.42,6.44-16.84,17.13-12.42Z"/>
      <path class="cls-1" d="M204.69,442.4c-10.24,3.03-17.97,16.24-25.79,21.4-3.86,2.55-6.36,3.37-7.6-1.58-2.6-10.4,7.8-14.16,9.15-22.79l3.02,9.14,19.78-12.19,1.44,6.01Z"/>
      <path class="cls-1" d="M262.55,381.54c3.59,4.48-22.27,46.3-30.41,39.56,7-11.46,14.62-22.99,22.58-33.81,1.1-1.49,3.41-11.28,7.83-5.75Z"/>
      <path class="cls-1" d="M177.34,387.62c2.56,12.89-7.99,11.24-16.9,14.9l-7.4-10.35c7.31.68,10.06-7.78,10.77-7.76,4.08.1,8.14,7.14,13.53,3.2Z"/>
      <path class="cls-1" d="M390.38,780.6l9.07-33.5-13.68,18.25c-2.33.44-1.84-2.81-1.54-4.57,1.44-8.31,11.2-33.87,14.94-42.94,1.55-3.74.48-9.42,6.36-10.36,3.77,24.74,3.97,54.88-15.15,73.11Z"/>
      <path class="cls-1" d="M426.89,701.4c-2.84-11.34-3.77-22.6,1.47-33.53,4.48-9.34,4.15,5.61,7.59,3.05.9-7.1-8.38-22.79,0-27.39-3.34,11.14,7.55,18.87,6.16,28.62-.73,5.12-9.65,26.4-15.22,29.25Z"/>
      <path class="cls-1" d="M391.92,354.12c9.43-1.9,23.36,22.27-.1,24.2-7.18-3.36-5.98-22.98.1-24.2Z"/>
      <path class="cls-1" d="M448.14,405.91c1.08,1.1-11.69,24-13.71,27.49-2.31,3.98.51,7.65-7.56,5.99-4.73-7.72,16.01-38.84,21.27-33.48Z"/>
    </g>
  </g>
</svg>