<?xml version="1.0" encoding="UTF-8"?>
<svg id="Layer_2" data-name="Layer 2" xmlns="http://www.w3.org/2000/svg" viewBox="0 0 636.12 1202.45">
  <defs>
    <style>
      .cls-1 {
        fill: #433e3f;
      }

      .cls-2 {
        fill: #fdecef;
      }
    </style>
  </defs>
  <g id="Layer_1-2" data-name="Layer 1">
    <g>
      <g>
        <path class="cls-2" d="M103.6,949.59c-.21-.04-.25-2.92-2.62-3.27-14.89-2.24-24.63,3.46-38.22,6.67-1.54-7.51,3.72-7.71,8.36-10.35,30.86-17.55,56.81,7.71,86.95,13.74-15.58-16.91-46.4-22-68.09-30.7l17.05-15.28-17.05-1.7,16.28-6.16,62.02,23.15-61.25-30.71c-1.26-5.47,6.54-3.27,8.56-6.51,1.25-2.01-1.74-7.94-.05-13.63,2.39-8.03,9.58-8.12,11.87-13.89l-23.8-.05-.03,10.24h-10.18c-4.78-11.52,6.23-14.02,6.7-15.99,2.17-9.17-1.46-18.22,4.25-29.29,8.18-15.86,20.91-5.51,33.25-11.03,4.08-1.82,12.81-13.04,19.98-17.51,16.88-10.52,78.07-21.75,97.37-18.1,13.45,2.54,39.88,26.81,58.05,26.69,11.2-5.32,25.05-4.64,35.73-8.08,19.42-6.27,39.88-26.55,61.23-16.99,13.64,6.11,2.31,23.28,35.86,25.46,23.5,1.53,22.6-6.56,39.69-11.25,19.51-5.35,22.34,2.7,40.27,4.51l-3.4,13.6,20.64-1.99,10.04,27.74-3.47,6.66-34.03,8.49,40.82-3.36.03,10.19c-20.24,4.44-40.58,3.73-60.96,4.92-6.05.36-5.18-4.07-3.74,5.33h49.37c3.46,0,15.02-9.65,22.11-6.8l-1.96,13.99c-18.96,4.86-41.58,9.16-61.17,6.62-10-1.3-13.27-7.62-21.13-9.53-30.46-7.37-61.97-12.17-92.76-17.88,4.82,6.37,22.07,10.9,29.78,12.77,21.21,5.13,55.01,14.21,74.25,17.7,11.96,2.17,51.74-4.6,55.96,5.33,3.4,8.02-2.65,9.8-9.29,10.96-14.81,2.58-30.25.12-45.14.99,11.85,16.02,45.57-6.21,40.85,23.82-1.19,1.23-43.51-3.35-30.67,6.81l28.22.67c8.15,2.11,12.6,15.9,7.52,16.44-17.24-4.95-28.49,6.36-45.93,3.41l30.61,11.95c-2.6,15.42-17.16,3.46-27.2,5.08l30.55,15.33-27.14,8.48,40.84,6.88-5.63,13.35-35.23-3.11c-.75,8.86-.51,5.68,5.1,6.7,3.35.61,40.43,2.68,32.31,13.72l-40.83.06c2.64,10.58,35.02,7.6,37.46,10.22l-.03,10.19c-2.3,2.52-21.19-9.63-23.81,3.39l20.51,1.66,3.31,12c-10.78-1.22-24.89,2.26-35.02-.7-4.21-1.23-8.18-7.35-14.19-9.66-6.88-2.66-93.55-33.94-93.81-25.43l121.71,45.23,17.91.83c2.83,12.63-18.13,5.25-25.32,6.59l-112.58-40.69-1.69,10.18c46.1,6.81,88.47,39,136.18,37.57l-27.06,8.65-6.95,6.68,6.76,1.7v6.8s-6.75,3.38-6.75,3.38l22.1,7.29c7.75.39,4.86-10.41,12.81-10.04,9.41.45,15.52,3.28,12.73,12.96-30.43,3.67-80.54,30.61-102.14.09,6.96-2.79,23.52,8.95,27.22,0-11.89-1.83-22.02-8.59-32.82-13.34-4.61-2.03-9.97,3.26-8-7.15,20.52-4.88,39.71,22.38,54.39,1.69.03-5.25-67.78-24.76-76.8-28.73-5.15-2.27-9.51-3.61-8.23-10.48,2.96-2.55,63.69,20.68,73.99,23.04,3.56.82,18,4.03,17.89-2.56l-97.31-30.9c-12.74,13-25.58,7.97-42.26,6.96,4.73-15.43,35.6,2.38,34.05-13.61h-81.71l10.23,13.63-13.66,1.66c-7.93,11.36-5.06,12.76,6.88,10.34l-10.27,56.24c-7.79,1.83-12.44-5.65-18.87-6.68-19.4-3.11-52.73,9.16-59.42-13.76l17.01-.04,6.83-40.95,10.19.04-6.84,35.75c.05,4.05,4.68-.21,5.21-1.61,3.64-9.46,4.69-28.16,8.69-39.12l-13.79-6.98,8.5-8.56-28.99-10.22c1.42-14.45,8.5-10.64,16.99-3.39,8.88-10.69-40.88-22.71-47.61-23.91,4.63-9.2,19.71-5.06,27.21-3.4-9.05-12.18-29.4-9.71-42.4-10.43l-2.06,10.07-16.85.4.02,10.21c21.06-2.41,5.73,14.97-6.79,13.69l10.13,8.49-16.93,15.34c7.27-2.41,25.22-6.54,23.81,6.82l-19.62,2.53-4.2,7.7,27.2.04-20.39,10.25c.61,7.24,13.18.33,16.97,8.54,4.07,8.82-11.69,1.58-10.16,8.44,16.13.48,36.38,10.69,49.36-3.31,6.28,3.45,7.75,14.71,1.85,18.91-3.77,2.68-72.2-11.26-85.26-5.36l.35-22.39c-.12-2.22,10.32.33,6.45-8.27l-10.23-.02c-1.84-9.17,2.12-4.95,6.83-8.47l-6.86-15.39c-13.96,10.56-36.61,15.9-49.39,27.27-8.09,7.2-1.35,6.34-.07,10.24,4.88,14.83-22.51-.87-18.6-13.6l71.48-39.28-44.22,15.35c-8.26-6.83,32.1-21.38,30.62-27.23-8.12-4.98-29.34,15.37-30.61,1.72l34-20.53-23.78,5.13.44-13.17c2.96-4.33,19.92.52,16.53-10.69l-17.06,1.86-3.36-12.08,37.44-13.64c-21.36-10.05-26.95,11.14-47.63,10.18l.17-13.42c23.15-5.15,32.86-13.05,57.71-3.64l-3.46-6.71,13.63-5.22c-12.25-3.14-24.98-6.17-37.43-8.51,10.16,8.99-43.89,20.63-47.63,23.87-1.59-7.7,3.69-7.6,8.31-10.4,5.27-3.19,35.95-16.46,39.32-13.47ZM256.74,826.91c-7.56,1.19-15.18-2.71-22.08-2.81-3.29-.05-21.24,1.56-22.1,6.08l44.22,10.25-.05-13.53ZM491.7,837.07c-28.86.66-56.41-11.15-85.08-13.64l53.03,16.74,32.05-3.1ZM280.65,847.24c15.93-1.11,35.32,4.95,47.58-8.49-8.78-13.03-23.89-7.8-37.38-8.49l23.81,10.16c-7.12-.29-14.09-.23-21.17,1-3.62.63-13.52.88-12.84,5.82ZM260.19,864.31c10.28-11.03-36.09-26.82-42.83-27.3-13.16-.92-18.3,13.49-1.4,10.27,3.28,9.3-5.61,5.84-6.47,7.07-6.84,9.77,19.64,10.3,24.9,9.86,4.61-.39,8.1-5.3,10.61-5.53,4.32-.4,9.11,7.55,15.2,5.63ZM488.32,857.54l-98.73-20.47c8.48,11.74,38.1,16.58,53.62,19.57,13.3,2.57,27.38,4.7,40.78,6.96,7.22,1.22,4.03-2.01,4.33-6.07ZM318.1,854.11c-12.52,2.28-39.76-7.5-40.86,10.2,14.53,1.45,26.33,3.3,40.86,0v-10.19ZM399.8,895.02c18.69-.36,26.66,5.7,44.24,6.79l-37.42-16.98c15.84-.37,31.31,3.33,46.78,6.02,6.59,1.14,4.07-.17,4.29-6.04-16.25,1.53-56.49-15.43-69.47-12.97-2.27.43-5.49,3.46-5.44,6.11l13.6,1.72c-5.99,11.06-22.65-6.63-20.42,8.53,7.16.3,21.03-1.18,23.85,6.84-6.96.13-19.85-3.87-17.04,6.8l51.05,13.66-19.75-12.7c-3.65-2.19-12.36.19-14.22-1.06-1.06-.72.52-5.09-.05-6.7ZM256.79,925.73c28.55,3.83,21.36-32.45-4.03-20.27-4.13,1.98-5.35,7.93-10.23,11-2.27,1.43-29.57,13.4-23.17,19.45l47.67,13.64-10.25-8.49,10.25-8.52-10.23-6.81ZM427.05,922.32l-51.07-13.64,10.18,8.49-20.4,8.5,23.83,6.9c3.52,14.37-18.12.71-20.41,10.15l51.04,13.65-16.96-15.31c7.36-10.15,12.88-3.12,20.32,1.7l3.46-20.44ZM262.34,957.78c-16.42-8.78-44.93-16.48-63.41-18.38.9,4.95,6.14,6.83,10.24,8.46,13.4,5.33,39.75,14.41,53.49,18.09,2.8.75,7.7,2.2,7.8-1-3.44-1.44-6.39-6.24-8.12-7.16ZM423.61,973.45c8.1-7.1-23.74-15.37-26.46-16.1-20.62-5.56-40.96-6.47-62.07-4.38l-.08,13.57-13.79,1.7-3.16,15.44c19.13,5.05,29.41-1.18,47.22-3.84,3.48-10.39,4.6-14.98-2.92-23.39l61.26,17ZM263.59,976.91l-71.47-20.47c12.13,10.3,40.59,19.2,56.99,23.03,3.4.8,15.08,3.85,14.49-2.56ZM433.82,987.2l-57.83-17.12,2.34,10.17c18.26,2.61,37.99,7.32,53.85,17.07l1.65-10.12ZM253.4,997.31c-14.61-17.33-46.72-18.03-68.07-23.83l20.53,11.81,47.54,12.01ZM355.54,1010.98c2.85-1.53,6.09-10.64,17.01-6.86l-10.14-8.49,6.75-8.49-55.79,6.57-5.55,15.52c15.47,3.85,31.98.9,47.72,1.75-19.07,10.28-33.42,6.22-54.28,7.02l-3.6,33.9h73.2c2.07,0,6.55-7.03,5.09-10.21l-17.01-6.8,13.6-10.26-44.22,3.36,37.34-8.58,3.48-8.42c-4.5-.22-9.09.23-13.6-.02ZM229.57,1004.13c-9.38-12.57-44.8-18.32-57.86-8.48,20.34-.3,37.91,6.7,57.86,8.48ZM467.89,1021.18c-19.68-15.65-53.65-23.29-78.29-27.22.14,4.81,9.22,7.37,13.07,9.02,19.38,8.29,44.45,13.69,65.22,18.19ZM491.7,1048.54c-35.13-5.66-67.01-29.84-102.1-30.7l91,33.29,11.1-2.6Z"/>
        <path class="cls-2" d="M410.01,1106.45c-18.74-3.93-47.2,3.64-61.27-10.16,6.18-3.07,16.24-1.72,21.23-3.53,5.39-1.95,3.68-13.13,14.28-9.96,4.02,1.2,6.27,10.24,10.32,13.57,4.86,4,13.61,2.84,15.44,10.08Z"/>
        <path class="cls-2" d="M83.16,1106.51l-3.42,13.58,13.62,5.2c-7.3,19.92-23.81,2.94-27.32-10.2l17.12-8.59Z"/>
        <polygon class="cls-2" points="559.81 932.57 576.95 930.63 578.65 946.3 566.51 948 559.81 932.57"/>
        <path class="cls-2" d="M556.43,908.72c2.59-3.8,24.77-6.38,20.37,8.43-3.53,11.86-27.91,2.63-20.37-8.43Z"/>
        <path class="cls-1" d="M355.54,1010.98c-15.74-.85-32.25,2.1-47.72-1.75l5.55-15.52,55.79-6.57-6.75,8.49,10.14,8.49c-10.91-3.78-14.16,5.32-17.01,6.86,4.51.24,9.1-.2,13.6.02l-3.48,8.42-37.34,8.58,44.22-3.36-13.6,10.26,17.01,6.8c1.46,3.18-3.02,10.21-5.09,10.21h-73.2l3.6-33.9c20.86-.8,35.2,3.26,54.28-7.02Z"/>
        <path class="cls-1" d="M423.61,973.45l-61.26-17c7.52,8.41,6.4,13,2.92,23.39-17.8,2.67-28.09,8.89-47.22,3.84l3.16-15.44,13.79-1.7.08-13.57c21.11-2.09,41.45-1.18,62.07,4.38,2.71.73,34.56,9,26.46,16.1Z"/>
        <path class="cls-1" d="M427.05,922.32l-3.46,20.44c-7.45-4.82-12.96-11.85-20.32-1.7l16.96,15.31-51.04-13.65c2.28-9.44,23.93,4.22,20.41-10.15l-23.83-6.9,20.4-8.5-10.18-8.49,51.07,13.64Z"/>
        <path class="cls-1" d="M256.79,925.73l10.23,6.81-10.25,8.52,10.25,8.49-47.67-13.64c-6.4-6.05,20.91-18.03,23.17-19.45,4.88-3.07,6.1-9.02,10.23-11,25.39-12.18,32.58,24.11,4.03,20.27Z"/>
        <path class="cls-1" d="M260.19,864.31c-6.08,1.92-10.87-6.03-15.2-5.63-2.51.23-6,5.14-10.61,5.53-5.26.45-31.74-.08-24.9-9.86.86-1.24,9.76,2.23,6.47-7.07-16.9,3.22-11.76-11.19,1.4-10.27,6.74.47,53.11,16.26,42.83,27.3Z"/>
        <path class="cls-1" d="M399.8,895.02c-2.82-8.02-16.69-6.54-23.85-6.84-2.23-15.16,14.44,2.53,20.42-8.53l-13.6-1.72c-.05-2.65,3.17-5.67,5.44-6.11,12.98-2.46,53.22,14.5,69.47,12.97-.22,5.87,2.3,7.19-4.29,6.04-15.46-2.69-30.94-6.39-46.78-6.02l37.42,16.98c-17.58-1.09-25.55-7.15-44.24-6.79.57,1.62-1.01,5.99.05,6.7,1.86,1.25,10.56-1.13,14.22,1.06l19.75,12.7-51.05-13.66c-2.81-10.67,10.08-6.67,17.04-6.8Z"/>
        <path class="cls-1" d="M488.32,857.54c-.3,4.05,2.89,7.29-4.33,6.07-13.4-2.26-27.49-4.39-40.78-6.96-15.52-3-45.14-7.83-53.62-19.57l98.73,20.47Z"/>
        <path class="cls-1" d="M467.89,1021.18c-20.77-4.51-45.84-9.9-65.22-18.19-3.85-1.65-12.93-4.21-13.07-9.02,24.64,3.92,58.61,11.56,78.29,27.22Z"/>
        <path class="cls-1" d="M491.7,1048.54l-11.1,2.6-91-33.29c35.09.86,66.97,25.04,102.1,30.7Z"/>
        <path class="cls-1" d="M280.65,847.24c-.67-4.94,9.22-5.19,12.84-5.82,7.08-1.24,14.05-1.29,21.17-1l-23.81-10.16c13.49.69,28.6-4.54,37.38,8.49-12.26,13.44-31.65,7.38-47.58,8.49Z"/>
        <path class="cls-1" d="M262.34,957.78c1.73.92,4.69,5.72,8.12,7.16-.1,3.21-5.01,1.75-7.8,1-13.74-3.68-40.08-12.75-53.49-18.09-4.1-1.63-9.35-3.51-10.24-8.46,18.48,1.91,46.98,9.6,63.41,18.38Z"/>
        <path class="cls-1" d="M253.4,997.31l-47.54-12.01-20.53-11.81c21.34,5.79,53.46,6.5,68.07,23.83Z"/>
        <path class="cls-1" d="M318.1,854.11v10.19c-14.52,3.31-26.33,1.46-40.86,0,1.1-17.7,28.34-7.92,40.86-10.2Z"/>
        <path class="cls-1" d="M263.59,976.91c.59,6.41-11.09,3.36-14.49,2.56-16.4-3.84-44.85-12.74-56.99-23.03l71.47,20.47Z"/>
        <path class="cls-1" d="M433.82,987.2l-1.65,10.12c-15.86-9.75-35.59-14.47-53.85-17.07l-2.34-10.17,57.83,17.12Z"/>
        <path class="cls-1" d="M491.7,837.07l-32.05,3.1-53.03-16.74c28.67,2.49,56.22,14.3,85.08,13.64Z"/>
        <path class="cls-1" d="M256.74,826.91l.05,13.53-44.22-10.25c.86-4.52,18.81-6.13,22.1-6.08,6.89.1,14.52,4,22.08,2.81Z"/>
        <path class="cls-1" d="M229.57,1004.13c-19.95-1.78-37.52-8.77-57.86-8.48,13.06-9.85,48.48-4.1,57.86,8.48Z"/>
      </g>
      <g>
        <path class="cls-1" d="M456.3,71.12c47.37,41.52,60.95,157.5,73.87,217.5,7.97,37.04,19.33,73.61,25.25,111.13,12.05,76.44,8.19,156.79,7.94,234.49-.18,53.53-11.99,134.06,12.19,181.92,5.19,10.27,14.54,17.81,19.63,28.08,34.53,69.64,55.86,203.37,28.44,276.7-8.83,23.61-20.77,15.41-37.94,23.38-38.13,17.72-68.56,62.71-113.83,48.58-10.89-3.4-17.21-16.08-25.98-16.74-10.89-.82-51.66,23.03-71.88,25.53-36.95,4.57-37.52-12.79-62.01-22.58-6.96-2.78-28.37-7.38-36.28-7.96-30.98-2.24-41.43,15.95-68.53,20.31-79.33,12.78-104.86-5.03-156.33-57.69-5.04-5.16-15.5-7.76-18.89-12.67-4.62-6.69-14.41-41.82-16.08-51.23-17.84-100.65,45.3-192.71,69.86-286.57,11.14-42.56,27.56-86.45,37.39-129.66,19.11-83.95,11.06-144.48-20.27-223.44-11.66-29.39-33.9-60.77-44.22-92.13-6.24-18.95-8.12-40.35-14.74-60.27C20.06,206.16-6.65,186.53,1.49,102.06c2.4-24.95,12.05-59.58,39.93-65.73,24.57-5.43,41.37-4.5,60.47,12.85,20.52,18.64,38.2,68.08,48.17,94.99,7.51,20.26,8.35,47.07,25,61.89,1.44-25.71-15.6-48.9-22.7-71.02-11.33-35.3-22-104.52,13.69-128.94,30.13-20.61,84.85,15.45,103.82,41.91l114.61,205.72c6.07-4.2,5.55-8.37,4.96-14.95-2.53-28.17-15.99-66.08-19.88-96.23-2.69-20.9-9.92-69.55,2.95-84.91,23.1-27.56,62.62-5.07,83.79,13.48ZM267.02,301.56c-1.41-8.98,1.7-15.45-6.81-23.84l13.59,3.37c5.01-15.56-9.76-16.78-12.7-21.34-2.29-3.56-1.17-10.77-3.19-15.49-5.94-13.88-12.3-27.68-18.13-41.57,9.48-1.88,5.52,2.46,7.93,7.25,5.28,10.49,9.66,21.98,12.83,33.28l20.08-3.08-5.09-10.14-8.47,6.75-3.41-23.85,3.4,13.63c15.61-6.95-8.04-22.97-.03-37.5l-16.89-.16-3.44-15.44-10.28,1.93,6.77-20.44c-9.13-3.28-5.4,6.09-9.03,6.84-4.53.94-10.01-.4-14.79-.03-6.77-43.99,27.15-28.77,54.29-28.62,12.41.07,7.31-13.81-8.16-15.89-17.68-2.38-35.17,6.27-52.94,3.54,9.9-12.9,31.7-9.62,46-10.19,5.22-.21,13.47,3.17,11.84-5.08-7.46-13.1-52.33.05-54.42-1.77.4-16.06,24.51-9.42,35.79-10.21,4.96-.35,9.96,2.58,8.38-5.05l-5.66-8.73c-15.65-.68-29-.06-44.45,2.8-6.58,1.21-4.13-.29-4.28-6.06h42.52c7.98-21.47-29.41-13.52-42.51-10.26-1.68-10.3,2.53-5.46,8.26-6.89,8.42-2.1,17.63-2.22,25.75-5.02-9.55-9.6-25.42-3.63-37.42-5.17l20.39-10.16c-19.24,3.19-28.22-14.5-44.42-8.71-9.92,3.54-15.22,27.29-16.56,37.93-5.64,45.05,47.47,122.81,44.25,183.99-.59,11.2-8.88,21.41-6.58,29.83,1.18,4.31,11.06,13.13,14.42,19.94,13.42,27.2,54.83,114.24,58.53,139.25,1.02,6.88-2.46,11.81-.49,20.61,2.18,9.69,12.12,24.95,17.27,34.14l8.54-20.42,3.3,7.75c9.34,9.36,14.29-7.31,20.42-12.89l-13.55-5.15c-8.88-8.67,48.97-2.87,52.84-3.38,4.68-.62,10.66-2.47,5.01-6.8-8.45-1.1-29.82,3.72-33.99-5.19-3.78-8.07,24.71-6.76,20.38-18.69-19.11,5.46-23.97-13.42-40.83-6.86,6.98-15.49-1.83-18.17-6.44-26.64-2.29-4.2.57-13.24-7.15-14.26-2.32,21.15-17.16-14.51-17.12-18.71l12.19-4.88c2.78,6.99,3.6,7.55,11.69,6.51,4.3-22.29-11.14-11.38-15.27-16.83-5.98-7.89-11.61-44.62-22.16-47.95,1.18,7.51.65,14.29,2.81,22.77,1.9,7.48,7.21,11.04,7.37,18.16-3.68-5.45-12.72-3.4-13.13-3.95-2.35-3.14-3.01-17.53-10.13-22.22l6.04-12.52,7.04-2.24ZM72.94,56.01c-28.42,1.18-40.83,1.26-44.26,32.37-8.59,78,12.81,102.16,35.6,169.01,9.95,29.17,15.31,60.56,26.87,89.04,20.63,50.82,52.07,100.2,65.32,156.25,3.53,14.91,2.31,37.74,5.65,48.9,1.47,4.9,8.63,8.01,9.26,11.36.81,4.31-7.71,10.78-9.23,17.27-10.71,45.97,7.93,54.39,13.11,91.22,1.08,7.7.49,22.26-.98,30.07-1.31,6.93-13.37,25.81-12.83,28.01.81,3.34,9.52,3.76,10.44,7.58,1.12,4.67-7.76,26.19,1.46,21.47,7.01-3.59,9.26-20.2,12.47-23.23,1.86-1.75,47.08,3.15,47.08-5.74-15.62-13.57-37.07,1.37-54.39-3.39l54.46-11.99-17.02-6.82,13.6-6.83-10.19-3.41,13.62-6.82c1.87-6.15-5.81-8.82-6.35-12.5-.6-4.12,5.16-7.09,5.15-9.63,0-1.87-4.58-21.8-4.77-24.66-.85-12.71,2.66-24.36-4.24-38.42,12.7-1.21,3.33,18.18,20.41,13.6-9.11-20.54,14.5-28.4,3.38-51.12-9.05,1.55,3.7,20.6-10.16,17.02l-.05-17.02-10.14,13.6-8.62-24.11-8.06-.15-14.29-41.85,24.13-8.92v-10.2s-20.43-.05-20.43-.05l10.18-13.59h-13.63s.01-20.46.01-20.46l-6.83,17.04-27.18-56.3c12.78-5.7,11.45,15.91,20.37,18.78,3.87-11.41-8.08-22.64-9.45-29.84-1.55-8.2,6.26-18.03-4.14-28.11,6.9-6.63,17.54,19.92,19.35,23.34,2.42,4.58-1.73,9.22,7.87,7.31l-17.04-46,17.04,5.07c2.7-10.86-3.76-8.67-7.91-14.43-2.62-3.64-5.23-12.35-5.76-12.82-7.52-6.55-5.18,8.47-10.1,6.77l-13.73-27.23-6.8,1.73,6.84,18.69c-14.12,3-18.14-15.53-16.98-27.26l10.16-1.67c-2.95-10.33-23.03-18.41-25.24-22.31-4.94-8.72-30.7-71.3-32.66-80.02-2.45-10.9,7.67,1.22,10.23-3.41-12.59-33.55-12.85-68.74-30.65-100.64-14.31,12.05-27.73,1.1-23.77-17.04l16.97,13.61-13.45-28.61c1.46-7.07,22.4-11.39,20.28-22.51ZM474.7,521.55c1.33-23.16-.97-46.75,0-69.92,3.99-4,13.62,10.91,13.62,11.94v51.16c0,.63,5.47,6.07,6.77,5.11,11.28-20.59-14.14-59.59,13.72-66.55l-3.5-15.28-6.74,6.78c5.81-32.98,2.26-60.43-3.47-92.08-14.35-3.52-.71,18.16-10.14,20.45-1.5-7.18-4.44-25.87-8.6-30.62-3.3-3.77-9.12-3.11-11.8-5.21-11.16-8.74,1.23-39.02,16.94-28.93v-13.68s-6.76,3.45-6.76,3.45l-3.46-20.51-10.17,3.43c6.1-12.29-19.1-35.24,3.42-29.03-3.12-7.56-1.69-20.41-4.07-26.62-2.34-6.12-11.46-6.55-12.5-11.12-.73-3.19,3.19-8.91,2.93-13.35-.88-15.18-4.34-19.06,3.35-35.83l-10.16,3.45c-4.54-15.49-10.52-28.3-6.03-45.27,1.6-6.05,9.26-9.87,8.66-17.29-1.27-15.75-32.84-46.73-49.51-32.16-1.45,1.27-9.8,23.93-9.98,27.43-1.84,34.76,15.37,83.34,21.93,117.55,14.67,76.62-6.59,131.24-12.83,203.93-.72,8.38,5.23,23.04-1.66,25.43l-3.37-6.8c-5.4,4.04-6,10.93-9.62,16.02-3.07,4.31-18.73,6.57,1.08,11.23l3.38-6.78-3.34,17.03,10.18-3.38c1.43,1.25-11.08,14.17-12.02,17.07-1.36,4.21,5.44,6.81,4.71,11.27-.7,4.28-15.26,14.3,9.15,12.87,4.6-.27,15.3-18.2,15.16-5.47-20.77,20.98-44.87,48.76-40.79,80.2l8.49-6.8c4.19,7.37-7.26,15.42-9.61,24.52-1.3,5.04.94,10.61-.33,16.36-2.55,11.53-11.36,18.2-5.81,31.88l-25.19,15.84-11.85,52.88,6.8,3.57,6.78-5.22c.93,10.09-3.57,22.95,5.16,30.68l5.06-27.25-3.35,47.72c31.37-10.58,60.87-28.75,95.29-23.88,13.38-10.22-32.52-5.62-34.01-6.82-3.85-9.86,9.68-4.25,6.76-11.86s-12.14-1.35-16.97-1.77c-4.48-4.78,7.93-78.1,15.32-88.65l-8.51,61.36,10.51-1.98,9.93-55.97,8.48,34.02c4.51,0,7.76-29.2,7.83-35.74.22-21.09-11.39-47.04-9.78-65.04,1.23-13.75,11.05-23.58,7.09-38.97,5.77-.38,4.06,16.05,3.55,18.92-2.28,12.6-16.78,31.36-.21,42.46-3.65-22.22,9.66-40.21,13.7-61.38l6.76.02,3.47,11.94c4.62-2.9.06-9.59,1.82-12.14,5.42-7.88,7.15,2.12,8.33-18.59ZM263.61,144.63c-1.42-6.99-27.83-7.01-32.63-6.44-12.84,1.52-5.27,11.2-4.78,20.1l3.55-9.96,33.86-3.7ZM478.07,236.76c6.8-7.17-3.33-38.5-16.97-37.5-1.19,1.24,7.31,29.35,9.39,33.15,2.17,3.94-.13,5.74,7.58,4.35ZM280.55,284.53l-10.19,5.13c2.08,2.84,13.92,36.2,20.47,28.94,5.54-6.14-5.84-10.95-6.49-12.82-2.16-6.22-2.52-14.58-3.79-21.25ZM525.73,393.63c-2.2-12.79,7.38-39.95-10.12-40.89l-6.84,10.22-6.82-6.81,3.78,49.04,11.52,53.2c10-.1-1.14-42.69-1.66-49.43-1.09-14.07.64-28.5,0-42.57l10.14,27.25ZM449.19,598.32c-4.82,1.4-7.9,23.47-7.55,28.54.26,3.79,4.71,7.65,5.16,11.37,1.21,9.82-9.16,23.06,2.36,31.61,19.61-17.62,5.84-25.18,4.78-39.11-.69-9.04,15.6-38.31-4.75-32.42ZM474.68,598.31h-10.19c4.48,12.9-2.7,21.56-3.4,34.07l10.47-2.08,3.12-31.99ZM491.7,598.31h-10.19c5.73,19.37-13.21,34.63-3.38,54.54,13.68,10.09,12.13-48.05,13.57-54.54ZM508.72,601.72c-8.86-1.64-5.99,1.66-8.35,6.79-6.25,13.57-5.8,26.32-5.26,40.96l17.02-.03c2.77-10.14-6.75-3.7-7.19-11.76-.63-11.67,5.95-23.75,3.78-35.95ZM301.02,734.69c17.48-25.63,14.69-47.48,10.3-76.76-.86-5.73,1.59-11.06-5.15-15.24-7.44,4.28-3.33,8.49-3.91,13.01-2.69,20.86-2.71,45.03-4.57,67.14-.31,3.72-2.48,12.73,3.33,11.85ZM508.69,697.21c-9.99-9.48-6.29,28.19-6.93,32.22-1.09,6.85-9.49,13.09-6.62,22.32,17.52,2.98,16.51-51.74,13.55-54.55ZM103.6,949.59c12.45,2.34,25.18,5.37,37.43,8.51l-13.63,5.22,3.46,6.71c-24.85-9.4-34.56-1.51-57.71,3.64l-.17,13.42c20.67.96,26.26-20.23,47.63-10.18l-37.44,13.64,3.36,12.08,17.06-1.86c3.39,11.21-13.57,6.36-16.53,10.69l-.44,13.17,23.78-5.13-34,20.53c1.27,13.65,22.49-6.7,30.61-1.72,1.48,5.85-38.88,20.4-30.62,27.23l44.22-15.35-71.48,39.28c-3.91,12.73,23.47,28.44,18.6,13.6-1.28-3.9-8.02-3.04.07-10.24,12.78-11.38,35.43-16.71,49.39-27.27l6.86,15.39c-4.7,3.53-8.66-.69-6.83,8.47l10.23.02c3.87,8.6-6.57,6.06-6.45,8.27l-.35,22.39c13.06-5.9,81.49,8.04,85.26,5.36,5.9-4.2,4.43-15.46-1.85-18.91-12.98,14-33.22,3.79-49.36,3.31-1.53-6.86,14.23.38,10.16-8.44-3.8-8.21-16.36-1.31-16.97-8.54l20.39-10.25-27.2-.04,4.2-7.7,19.62-2.53c1.4-13.36-16.54-9.23-23.81-6.82l16.93-15.34-10.13-8.49c12.51,1.28,27.85-16.1,6.79-13.69l-.02-10.21,16.85-.4,2.06-10.07c13,.72,33.35-1.75,42.4,10.43-7.5-1.66-22.58-5.8-27.21,3.4,6.73,1.2,56.49,13.22,47.61,23.91-8.48-7.25-15.57-11.06-16.99,3.39l28.99,10.22-8.5,8.56,13.79,6.98c-4,10.97-5.06,29.66-8.69,39.12-.54,1.4-5.16,5.65-5.21,1.61l6.84-35.75-10.19-.04-6.83,40.95-17.01.04c6.69,22.92,40.03,10.66,59.42,13.76,6.42,1.03,11.08,8.51,18.87,6.68l10.27-56.24c-11.94,2.42-14.81,1.02-6.88-10.34l13.66-1.66-10.23-13.63h81.71c1.55,15.99-29.32-1.82-34.05,13.61,16.68,1.01,29.52,6.04,42.26-6.96l97.31,30.9c.11,6.59-14.33,3.37-17.89,2.56-10.3-2.36-71.04-25.59-73.99-23.04-1.28,6.86,3.08,8.21,8.23,10.48,9.02,3.97,76.82,23.48,76.8,28.73-14.68,20.7-33.87-6.57-54.39-1.69-1.97,10.4,3.39,5.12,8,7.15,10.79,4.75,20.93,11.51,32.82,13.34-3.7,8.94-20.25-2.79-27.22,0,21.6,30.52,71.71,3.58,102.14-.09,2.8-9.68-3.31-12.51-12.73-12.96-7.95-.38-5.07,10.42-12.81,10.04l-22.1-7.29,6.76-3.38v-6.8s-6.77-1.7-6.77-1.7l6.95-6.68,27.06-8.65c-47.71,1.43-90.09-30.76-136.18-37.57l1.69-10.18,112.58,40.69c7.19-1.35,28.15,6.03,25.32-6.59l-17.91-.83-121.71-45.23c.26-8.51,86.93,22.77,93.81,25.43,6.01,2.32,9.98,8.43,14.19,9.66,10.13,2.96,24.23-.52,35.02.7l-3.31-12-20.51-1.66c2.62-13.02,21.51-.87,23.81-3.39l.03-10.19c-2.45-2.62-34.83.35-37.46-10.22l40.83-.06c8.12-11.04-28.96-13.11-32.31-13.72-5.62-1.02-5.85,2.16-5.1-6.7l35.23,3.11,5.63-13.35-40.84-6.88,27.14-8.48-30.55-15.33c10.05-1.63,24.6,10.34,27.2-5.08l-30.61-11.95c17.44,2.94,28.69-8.37,45.93-3.41,5.07-.54.63-14.33-7.52-16.44l-28.22-.67c-12.84-10.17,29.48-5.59,30.67-6.81,4.72-30.04-29-7.81-40.85-23.82,14.89-.87,30.33,1.59,45.14-.99,6.64-1.16,12.69-2.94,9.29-10.96-4.21-9.94-44-3.16-55.96-5.33-19.24-3.49-53.05-12.57-74.25-17.7-7.71-1.87-24.96-6.4-29.78-12.77,30.79,5.72,62.3,10.52,92.76,17.88,7.86,1.9,11.13,8.23,21.13,9.53,19.59,2.54,42.21-1.76,61.17-6.62l1.96-13.99c-7.09-2.84-18.65,6.8-22.11,6.8h-49.37c-1.44-9.4-2.31-4.98,3.74-5.33,20.38-1.2,40.72-.48,60.96-4.92l-.03-10.19-40.82,3.36,34.03-8.49,3.47-6.66-10.04-27.74-20.64,1.99,3.4-13.6c-17.93-1.81-20.76-9.86-40.27-4.51-17.09,4.69-16.19,12.78-39.69,11.25-33.54-2.18-22.22-19.35-35.86-25.46-21.35-9.56-41.8,10.72-61.23,16.99-10.68,3.45-24.53,2.76-35.73,8.08-18.17.12-44.61-24.15-58.05-26.69-19.3-3.64-80.49,7.58-97.37,18.1-7.17,4.47-15.9,15.68-19.98,17.51-12.34,5.52-25.07-4.83-33.25,11.03-5.71,11.07-2.08,20.12-4.25,29.29-.47,1.98-11.48,4.47-6.7,15.98h10.18s.03-10.23.03-10.23l23.8.05c-2.29,5.77-9.48,5.86-11.87,13.89-1.69,5.69,1.3,11.62.05,13.63-2.02,3.25-9.81,1.05-8.56,6.51l61.25,30.71-62.02-23.15-16.28,6.16,17.05,1.7-17.05,15.28c21.68,8.7,52.51,13.79,68.09,30.7-30.14-6.03-56.09-31.3-86.95-13.74-4.64,2.64-9.9,2.84-8.36,10.35,13.6-3.21,23.33-8.91,38.22-6.67,2.37.36,2.41,3.23,2.62,3.27-3.37-2.98-34.05,10.29-39.32,13.47-4.62,2.8-9.9,2.7-8.31,10.4,3.74-3.24,57.79-14.89,47.63-23.87ZM556.43,908.72c-7.54,11.06,16.84,20.3,20.37,8.43,4.41-14.81-17.78-12.23-20.37-8.43ZM559.81,932.57l6.7,15.43,12.14-1.7-1.7-15.67-17.14,1.94ZM410.01,1106.45c-1.83-7.23-10.58-6.08-15.44-10.08-4.05-3.32-6.3-12.37-10.32-13.57-10.61-3.17-8.89,8.01-14.28,9.96-5,1.81-15.05.46-21.23,3.53,14.07,13.8,42.53,6.23,61.27,10.16ZM83.16,1106.51l-17.12,8.59c3.52,13.14,20.02,30.12,27.32,10.2l-13.62-5.2,3.42-13.58Z"/>
        <path class="cls-2" d="M72.94,56.01c2.12,11.13-18.82,15.44-20.28,22.51l13.45,28.61-16.97-13.61c-3.96,18.15,9.46,29.1,23.77,17.04,17.8,31.9,18.06,67.1,30.65,100.64-2.56,4.63-12.68-7.49-10.23,3.41,1.96,8.73,27.72,71.3,32.66,80.02,2.21,3.9,22.29,11.98,25.24,22.31l-10.16,1.67c-1.16,11.73,2.86,30.26,16.98,27.26l-6.84-18.69,6.8-1.73,13.73,27.23c4.92,1.7,2.58-13.32,10.1-6.77.53.46,3.13,9.18,5.76,12.82,4.15,5.76,10.61,3.56,7.91,14.43l-17.04-5.07,17.04,46c-9.6,1.91-5.45-2.73-7.87-7.31-1.81-3.42-12.45-29.97-19.35-23.34,10.4,10.08,2.58,19.9,4.14,28.11,1.36,7.2,13.32,18.44,9.45,29.84-8.92-2.87-7.59-24.48-20.37-18.78l27.18,56.3,6.83-17.04v20.47s13.62,0,13.62,0l-10.18,13.59,20.43.05v10.2s-24.13,8.92-24.13,8.92l14.29,41.85,8.06.15,8.62,24.11,10.14-13.6.05,17.02c13.86,3.58,1.11-15.46,10.16-17.02,11.12,22.71-12.48,30.57-3.38,51.12-17.07,4.58-7.71-14.8-20.41-13.6,6.9,14.06,3.39,25.71,4.24,38.42.19,2.86,4.77,22.78,4.77,24.66,0,2.54-5.75,5.51-5.15,9.63.54,3.68,8.22,6.35,6.35,12.5l-13.62,6.82,10.19,3.41-13.6,6.83,17.02,6.82-54.46,11.99c17.32,4.77,38.77-10.18,54.39,3.39,0,8.89-45.22,3.99-47.08,5.74-3.22,3.02-5.46,19.64-12.47,23.23-9.21,4.72-.34-16.81-1.46-21.47-.92-3.82-9.63-4.24-10.44-7.58-.53-2.21,11.52-21.09,12.83-28.01,1.48-7.81,2.06-22.37.98-30.07-5.18-36.82-23.82-45.24-13.11-91.22,1.51-6.49,10.03-12.97,9.23-17.27-.63-3.35-7.79-6.46-9.26-11.36-3.33-11.16-2.12-33.99-5.65-48.9-13.25-56.05-44.69-105.43-65.32-156.25-11.56-28.48-16.93-59.87-26.87-89.04-22.79-66.85-44.19-91-35.6-169.01,3.43-31.11,15.84-31.19,44.26-32.37ZM76.35,188.98c-6.51-14.43-.99-25.1.15-39.1.29-3.59,2.13-12.96-3.51-12.02l-.07,20.45-8.46-10.22c-12.34,8.89-8.28,15.38-3,26.9,1.61,3.5,8.75,16.27,14.88,13.99ZM110.42,284.47l-13.6-27.26-.07,10.23-10.15-6.82c-3.51,4.57,12.19,34,23.81,23.84Z"/>
        <path class="cls-2" d="M267.02,301.56c10.55,3.33,16.18,40.07,22.16,47.95,4.13,5.45,19.57-5.46,15.27,16.83-8.09,1.04-8.9.48-11.69-6.51l-12.19,4.88c-.05,4.2,14.8,39.86,17.12,18.71,7.72,1.02,4.86,10.06,7.15,14.26,4.61,8.47,13.42,11.15,6.44,26.64,16.86-6.57,21.72,12.32,40.83,6.86,4.33,11.93-24.16,10.62-20.38,18.69,4.17,8.9,25.54,4.09,33.99,5.19,5.65,4.33-.33,6.18-5.01,6.8-3.87.51-61.72-5.29-52.84,3.38l13.55,5.15c-6.14,5.58-11.08,22.25-20.42,12.89l-3.3-7.75-8.54,20.42c-5.15-9.19-15.09-24.45-17.27-34.14-1.97-8.8,1.5-13.73.49-20.61-3.7-25.01-45.11-112.05-58.53-139.25-3.36-6.81-13.24-15.63-14.42-19.94-2.3-8.42,5.99-18.62,6.58-29.83,3.22-61.18-49.9-138.94-44.25-183.99,1.33-10.64,6.64-34.39,16.56-37.93,16.2-5.79,25.18,11.9,44.42,8.71l-20.39,10.16c12,1.54,27.86-4.43,37.42,5.17-8.12,2.8-17.33,2.91-25.75,5.02-5.72,1.43-9.94-3.41-8.26,6.89,13.1-3.26,50.49-11.21,42.51,10.26h-42.52c.15,5.77-2.3,7.27,4.28,6.05,15.45-2.85,28.8-3.47,44.45-2.8l5.66,8.73c1.58,7.62-3.42,4.7-8.38,5.05-11.28.79-35.39-5.85-35.79,10.21,2.09,1.83,46.96-11.32,54.42,1.77,1.63,8.25-6.62,4.87-11.84,5.08-14.3.57-36.1-2.71-46,10.19,17.77,2.73,35.26-5.92,52.94-3.54,15.46,2.08,20.57,15.96,8.16,15.89-27.14-.15-61.07-15.37-54.29,28.62,4.78-.37,10.26.97,14.79.03,3.62-.75-.1-10.13,9.03-6.84l-6.77,20.44,10.28-1.93,3.44,15.44,16.89.16c-8,14.53,15.64,30.55.03,37.5l-3.4-13.63,3.41,23.85,8.47-6.75,5.09,10.14-20.08,3.08c-3.17-11.3-7.55-22.79-12.83-33.28-2.41-4.79,1.55-9.13-7.93-7.25,5.83,13.89,12.19,27.69,18.13,41.57,2.02,4.72.91,11.93,3.19,15.49,2.93,4.57,17.7,5.79,12.7,21.34l-13.59-3.37c8.5,8.4,5.4,14.86,6.81,23.84l-7.04,2.24-6.04,12.52c7.11,4.7,7.78,19.08,10.13,22.22.41.55,9.45-1.51,13.13,3.95-.16-7.12-5.47-10.68-7.37-18.16-2.16-8.48-1.63-15.26-2.81-22.77Z"/>
        <path class="cls-2" d="M301.02,734.69c-5.81.88-3.64-8.13-3.33-11.85,1.86-22.11,1.88-46.28,4.57-67.14.58-4.51-3.53-8.72,3.91-13.01,6.74,4.18,4.29,9.5,5.15,15.24,4.39,29.28,7.18,51.13-10.3,76.76Z"/>
        <path class="cls-2" d="M263.61,144.63l-33.86,3.7-3.55,9.96c-.49-8.9-8.05-18.58,4.78-20.1,4.8-.57,31.21-.55,32.63,6.44Z"/>
        <path class="cls-2" d="M280.55,284.53c1.28,6.66,1.64,15.03,3.79,21.25.65,1.87,12.03,6.68,6.49,12.82-6.55,7.26-18.39-26.1-20.47-28.94l10.19-5.13Z"/>
        <path class="cls-1" d="M76.35,188.98c-6.14,2.28-13.28-10.49-14.88-13.99-5.29-11.52-9.34-18.01,3-26.9l8.46,10.22.07-20.45c5.64-.94,3.8,8.44,3.51,12.02-1.14,14-6.67,24.66-.15,39.1Z"/>
        <path class="cls-1" d="M110.42,284.47c-11.62,10.16-27.32-19.28-23.81-23.84l10.15,6.82.07-10.23,13.6,27.26Z"/>
        <g>
          <path class="cls-2" d="M474.7,521.55c-1.19,20.71-2.91,10.71-8.33,18.59-1.76,2.56,2.79,9.24-1.82,12.14l-3.47-11.94-6.76-.02c-4.04,21.18-17.35,39.16-13.7,61.38-16.57-11.1-2.07-29.86.21-42.46.52-2.87,2.22-19.3-3.55-18.92,3.95,15.4-5.86,25.23-7.09,38.97-1.62,18,10,43.95,9.78,65.04-.07,6.55-3.31,35.75-7.83,35.74l-8.48-34.02-9.93,55.97-10.51,1.98,8.51-61.36c-7.39,10.55-19.79,83.86-15.32,88.65,4.83.43,14.1-5.72,16.97,1.77s-10.61,2.01-6.76,11.86c1.49,1.2,47.39-3.4,34.01,6.82-34.42-4.88-63.92,13.3-95.29,23.88l3.35-47.72-5.06,27.25c-8.73-7.73-4.23-20.59-5.16-30.68l-6.78,5.22-6.8-3.57,11.85-52.88,25.19-15.84c-5.56-13.67,3.25-20.35,5.81-31.88,1.27-5.75-.97-11.32.33-16.36,2.35-9.1,13.8-17.15,9.61-24.52l-8.49,6.8c-4.07-31.44,20.02-59.22,40.79-80.2.14-12.72-10.56,5.2-15.16,5.47-24.41,1.43-9.85-8.59-9.15-12.87.73-4.46-6.07-7.06-4.71-11.27.94-2.9,13.44-15.83,12.02-17.07l-10.18,3.38,3.34-17.03-3.38,6.78c-19.81-4.66-4.15-6.92-1.08-11.23,3.62-5.09,4.22-11.97,9.62-16.02l3.37,6.8c6.89-2.39.94-17.05,1.66-25.43,6.24-72.69,27.5-127.3,12.83-203.93-6.55-34.22-23.77-82.79-21.93-117.55.19-3.5,8.53-26.16,9.98-27.43,16.67-14.57,48.24,16.41,49.51,32.16.6,7.42-7.06,11.23-8.66,17.29-4.49,16.97,1.49,29.78,6.03,45.27l10.16-3.45c-7.69,16.77-4.23,20.65-3.35,35.83.26,4.44-3.66,10.16-2.93,13.35,1.04,4.58,10.15,5,12.5,11.12,2.38,6.21.95,19.05,4.07,26.62-22.52-6.21,2.67,16.74-3.42,29.03l10.17-3.43,3.46,20.51,6.75-3.45v13.68c-15.7-10.1-28.09,20.18-16.93,28.93,2.69,2.11,8.51,1.44,11.8,5.21,4.16,4.76,7.11,23.44,8.6,30.62,9.43-2.29-4.21-23.98,10.14-20.45,5.74,31.65,9.28,59.1,3.47,92.08l6.74-6.78,3.5,15.28c-27.86,6.96-2.44,45.96-13.72,66.55-1.3.96-6.77-4.48-6.77-5.11v-51.16c0-1.03-9.62-15.94-13.62-11.94-.97,23.16,1.33,46.76,0,69.92ZM479.3,375.4c-1.64-3.33-.09-13.02-4.65-7.29,5.01,24.9,2.35,50.09,6.97,74.97,1.03,5.58-2.22,5.89,6.68,5.12-1.28-22.72,11.64-40.55,6.79-64.78l-10.14,20.45c-.74-6.21.85-13.06.22-19.15-1.08-10.47-4.82-7.2-5.86-9.32ZM376,724.48c14.98-17.45,11.87-49.57,20.36-71.62-16.56,18.18-14.03,48.69-20.36,71.62Z"/>
          <path class="cls-2" d="M525.73,393.63l-10.14-27.25c.65,14.07-1.08,28.51,0,42.57.52,6.74,11.65,49.33,1.66,49.43l-11.52-53.2-3.78-49.04,6.82,6.81,6.84-10.22c17.49.94,7.92,28.1,10.12,40.89Z"/>
          <path class="cls-2" d="M449.19,598.32c20.35-5.9,4.06,23.38,4.75,32.42,1.06,13.93,14.83,21.49-4.78,39.11-11.52-8.55-1.15-21.79-2.36-31.61-.46-3.72-4.9-7.59-5.16-11.37-.35-5.07,2.73-27.14,7.55-28.54Z"/>
          <path class="cls-2" d="M491.7,598.31c-1.44,6.49.11,64.63-13.57,54.54-9.83-19.91,9.11-35.16,3.38-54.54h10.19Z"/>
          <path class="cls-2" d="M508.72,601.72c2.17,12.2-4.41,24.28-3.78,35.95.44,8.06,9.96,1.62,7.19,11.76l-17.02.03c-.54-14.64-.99-27.39,5.26-40.96,2.36-5.13-.51-8.43,8.35-6.79Z"/>
          <path class="cls-2" d="M508.69,697.21c2.96,2.81,3.97,57.53-13.55,54.55-2.87-9.24,5.53-15.48,6.62-22.32.64-4.04-3.06-41.7,6.93-32.22Z"/>
          <path class="cls-2" d="M478.07,236.76c-7.71,1.39-5.41-.42-7.58-4.35-2.09-3.8-10.59-31.91-9.39-33.15,13.64-.99,23.78,30.34,16.97,37.5Z"/>
          <path class="cls-2" d="M474.68,598.31l-3.12,31.99-10.47,2.08c.7-12.51,7.88-21.17,3.4-34.08h10.19Z"/>
          <path class="cls-1" d="M479.3,375.4c1.05,2.12,4.78-1.15,5.86,9.32.63,6.09-.96,12.93-.22,19.15l10.14-20.45c4.85,24.23-8.07,42.07-6.79,64.78-8.9.77-5.64.46-6.68-5.12-4.62-24.89-1.96-50.07-6.97-74.97,4.56-5.74,3.01,3.96,4.65,7.29Z"/>
          <path class="cls-1" d="M376,724.48c6.34-22.93,3.8-53.44,20.36-71.62-8.49,22.06-5.38,54.17-20.36,71.62Z"/>
        </g>
      </g>
    </g>
  </g>
</svg>